<?xml version="1.0" encoding="UTF-8" standalone="no"?>
<svg
   xmlns:dc="http://purl.org/dc/elements/1.1/"
   xmlns:cc="http://creativecommons.org/ns#"
   xmlns:rdf="http://www.w3.org/1999/02/22-rdf-syntax-ns#"
   xmlns:svg="http://www.w3.org/2000/svg"
   xmlns="http://www.w3.org/2000/svg"
   xmlns:sodipodi="http://sodipodi.sourceforge.net/DTD/sodipodi-0.dtd"
   xmlns:inkscape="http://www.inkscape.org/namespaces/inkscape"
   width="41"
   height="41"
   viewBox="0 0 41 41"
   fill="none"
   version="1.1"
   id="svg30"
   sodipodi:docname="new-lykke-business-icon.svg"
   inkscape:version="0.92.4 (5da689c313, 2019-01-14)">
  <metadata
     id="metadata36">
    <rdf:RDF>
      <cc:Work
         rdf:about="">
        <dc:format>image/svg+xml</dc:format>
        <dc:type
           rdf:resource="http://purl.org/dc/dcmitype/StillImage" />
      </cc:Work>
    </rdf:RDF>
  </metadata>
  <defs
     id="defs34" />
  <sodipodi:namedview
     pagecolor="#ffffff"
     bordercolor="#666666"
     borderopacity="1"
     objecttolerance="10"
     gridtolerance="10"
     guidetolerance="10"
     inkscape:pageopacity="0"
     inkscape:pageshadow="2"
     inkscape:window-width="2606"
     inkscape:window-height="1852"
     id="namedview32"
     showgrid="false"
     inkscape:zoom="4.6253687"
     inkscape:cx="121.569"
     inkscape:cy="51.179504"
     inkscape:window-x="0"
     inkscape:window-y="0"
     inkscape:window-maximized="0"
     inkscape:current-layer="svg30" />
  <path
     fill-rule="evenodd"
     clip-rule="evenodd"
     d="M19.5669 18.1794V2.4688C19.5669 1.10532 20.6534 0 21.9936 0C23.3339 0 24.4204 1.10532 24.4204 2.4688V15.8374H38.3783C39.7418 15.8374 40.8471 16.9239 40.8471 18.2641C40.8471 19.6044 39.7418 20.6909 38.3783 20.6909H22.2189C22.0126 20.6909 21.8122 20.666 21.6206 20.6192C20.4574 20.4366 19.5669 19.4138 19.5669 18.1794ZM2.4688 20.6909H15.4861C16.8496 20.6909 17.9549 19.6044 17.9549 18.2641C17.9549 16.9239 16.8496 15.8374 15.4861 15.8374H2.4688C1.10532 15.8374 0 16.9239 0 18.2641C0 19.6044 1.10532 20.6909 2.4688 20.6909ZM19.9185 22.6935C20.7476 22.4431 21.682 22.6528 22.3339 23.3211L33.5658 34.8362C34.5099 35.804 34.5039 37.3672 33.5526 38.3276C32.6012 39.288 31.0647 39.2819 30.1206 38.3141L20.3932 28.3415L10.5068 38.135C9.5464 39.0864 7.98326 39.0923 7.01541 38.1482C6.04757 37.2042 6.04154 35.6677 7.00193 34.7163L18.4284 23.3973C18.8444 22.9852 19.3736 22.7504 19.9185 22.6935Z"
     fill="#E4B550"
     id="path28" />
</svg>
