<?xml version="1.0" encoding="UTF-8"?> <svg xmlns="http://www.w3.org/2000/svg" width="339" height="46" viewBox="0 0 339 46" fill="none"> <path d="M56.1074 34.2764V4.50648C56.1074 4.11606 56.2376 3.79071 56.4978 3.53042C56.7907 3.2376 57.1323 3.0912 57.5227 3.0912C57.9131 3.0912 58.2385 3.2376 58.4988 3.53042C58.7591 3.79071 58.8892 4.11606 58.8892 4.50648V33.2515H73.5301C73.888 33.2515 74.1808 33.3817 74.4086 33.6419C74.6689 33.8697 74.799 34.1625 74.799 34.5204C74.799 34.8457 74.6689 35.1386 74.4086 35.3988C74.1808 35.6591 73.888 35.7893 73.5301 35.7893H57.6203C56.6117 35.7893 56.1074 35.285 56.1074 34.2764Z" fill="#333333"></path> <path d="M75.3581 42.9145C75.3906 42.9145 75.5533 42.9308 75.8461 42.9633C76.1389 43.0284 76.3829 43.0609 76.5781 43.0609C78.1398 43.0609 79.3274 42.1011 80.1408 40.1815L81.9953 35.9845L72.7715 13.9743C72.7064 13.7791 72.6739 13.5839 72.6739 13.3886C72.6739 13.0308 72.7878 12.7217 73.0155 12.4614C73.2758 12.2011 73.5849 12.071 73.9428 12.071C74.5609 12.071 74.9676 12.3475 75.1629 12.9006L83.4594 32.8123L91.7071 12.9006C91.9023 12.3475 92.2927 12.071 92.8784 12.071C93.2688 12.071 93.5779 12.2011 93.8056 12.4614C94.0659 12.7217 94.1961 13.0308 94.1961 13.3886C94.1961 13.5188 94.1473 13.7303 94.0497 14.0231L82.6297 40.9624C81.4259 43.8906 79.4087 45.3547 76.5781 45.3547C76.4805 45.3547 76.0413 45.3221 75.2605 45.2571C74.9351 45.2245 74.6586 45.0944 74.4308 44.8666C74.2356 44.6389 74.138 44.3786 74.138 44.0858C74.138 43.7604 74.2519 43.4839 74.4796 43.2561C74.7399 43.0284 75.0327 42.9145 75.3581 42.9145Z" fill="#333333"></path> <path d="M115.747 34.618C115.747 34.9759 115.617 35.285 115.357 35.5453C115.129 35.8055 114.836 35.9357 114.478 35.9357C114.023 35.9357 113.681 35.7893 113.453 35.4965L103.985 24.5646L99.5931 28.7128V34.6668C99.5931 34.9922 99.463 35.285 99.2027 35.5453C98.9749 35.8055 98.6821 35.9357 98.3242 35.9357C97.9989 35.9357 97.7061 35.8055 97.4458 35.5453C97.1855 35.285 97.0553 34.9922 97.0553 34.6668V4.36007C97.0553 4.00219 97.1855 3.70937 97.4458 3.48162C97.7061 3.22134 97.9989 3.0912 98.3242 3.0912C98.6821 3.0912 98.9749 3.22134 99.2027 3.48162C99.463 3.70937 99.5931 4.00219 99.5931 4.36007V25.6382L113.6 12.3638C113.86 12.1686 114.136 12.071 114.429 12.071C114.755 12.071 115.031 12.2011 115.259 12.4614C115.487 12.6891 115.601 12.9657 115.601 13.291C115.601 13.6164 115.47 13.9092 115.21 14.1695L105.938 22.9053L115.454 33.7395C115.649 33.9998 115.747 34.2926 115.747 34.618Z" fill="#333333"></path> <path d="M138.295 34.618C138.295 34.9759 138.165 35.285 137.905 35.5453C137.677 35.8055 137.384 35.9357 137.026 35.9357C136.571 35.9357 136.229 35.7893 136.001 35.4965L126.534 24.5646L122.141 28.7128V34.6668C122.141 34.9922 122.011 35.285 121.751 35.5453C121.523 35.8055 121.23 35.9357 120.873 35.9357C120.547 35.9357 120.254 35.8055 119.994 35.5453C119.734 35.285 119.604 34.9922 119.604 34.6668V4.36007C119.604 4.00219 119.734 3.70937 119.994 3.48162C120.254 3.22134 120.547 3.0912 120.873 3.0912C121.23 3.0912 121.523 3.22134 121.751 3.48162C122.011 3.70937 122.141 4.00219 122.141 4.36007V25.6382L136.148 12.3638C136.408 12.1686 136.685 12.071 136.978 12.071C137.303 12.071 137.579 12.2011 137.807 12.4614C138.035 12.6891 138.149 12.9657 138.149 13.291C138.149 13.6164 138.019 13.9092 137.758 14.1695L128.486 22.9053L138.002 33.7395C138.198 33.9998 138.295 34.2926 138.295 34.618Z" fill="#333333"></path> <path d="M151.06 11.6317C154.412 11.6317 157.096 12.7867 159.113 15.0968C161.163 17.3742 162.188 20.1397 162.188 23.3933C162.188 24.3368 161.683 24.8086 160.675 24.8086H142.471C142.634 27.509 143.545 29.754 145.204 31.5434C146.896 33.3003 149.059 34.1788 151.695 34.1788C154.428 34.1788 156.787 33.284 158.771 31.4946C158.901 31.3645 159.113 31.2994 159.406 31.2994C159.699 31.2994 159.943 31.397 160.138 31.5922C160.333 31.7874 160.431 32.0477 160.431 32.3731C160.431 32.6659 160.3 32.9424 160.04 33.2027C157.633 35.3175 154.786 36.3749 151.5 36.3749C148.051 36.3749 145.22 35.2199 143.008 32.9099C140.795 30.5673 139.689 27.5903 139.689 23.9789C139.689 20.5627 140.779 17.6508 142.959 15.2432C145.171 12.8355 147.872 11.6317 151.06 11.6317ZM142.471 22.8076H159.601C159.536 20.4326 158.739 18.3503 157.21 16.5609C155.713 14.7389 153.647 13.8279 151.012 13.8279C148.506 13.8279 146.473 14.7389 144.911 16.5609C143.382 18.3503 142.569 20.4326 142.471 22.8076Z" fill="#333333"></path> <path d="M166.313 33.2027V5.82417C166.313 4.09979 167.191 3.2376 168.948 3.2376H181.588C184.386 3.2376 186.615 4.00219 188.274 5.53135C189.933 7.06051 190.763 9.06144 190.763 11.5341C190.763 13.4537 190.226 15.0968 189.152 16.4632C188.079 17.8297 186.729 18.6757 185.102 19.001C186.826 19.2613 188.307 20.1723 189.543 21.734C190.779 23.2957 191.397 25.0526 191.397 27.0047C191.397 29.6726 190.551 31.8037 188.86 33.3979C187.168 34.9922 184.874 35.7893 181.978 35.7893H168.948C167.191 35.7893 166.313 34.9271 166.313 33.2027ZM171.193 17.0489H180.661C182.222 17.0489 183.459 16.6097 184.37 15.7312C185.281 14.8527 185.736 13.714 185.736 12.315C185.736 10.8834 185.281 9.72842 184.37 8.84996C183.459 7.9715 182.222 7.53228 180.661 7.53228H171.193V17.0489ZM171.193 31.4946H180.905C182.597 31.4946 183.931 31.0391 184.907 30.1281C185.883 29.2171 186.371 27.9645 186.371 26.3703C186.371 24.9062 185.883 23.7024 184.907 22.7588C183.931 21.8153 182.597 21.3436 180.905 21.3436H171.193V31.4946Z" fill="#333333"></path> <path d="M215.547 14.1695V33.8371C215.547 34.4553 215.319 34.9759 214.864 35.3988C214.441 35.8218 213.937 36.0333 213.351 36.0333C212.733 36.0333 212.212 35.8218 211.789 35.3988C211.366 34.9759 211.155 34.4553 211.155 33.8371V32.5683C208.845 35.106 206.047 36.3749 202.761 36.3749C197.75 36.3749 195.245 33.8697 195.245 28.8592V14.1695C195.245 13.5513 195.456 13.0308 195.879 12.6078C196.302 12.1848 196.823 11.9734 197.441 11.9734C198.027 11.9734 198.531 12.1848 198.954 12.6078C199.409 13.0308 199.637 13.5513 199.637 14.1695V27.3951C199.637 29.2171 200.044 30.5185 200.857 31.2994C201.671 32.0802 202.923 32.4707 204.615 32.4707C205.884 32.4707 207.104 32.1616 208.275 31.5434C209.479 30.9252 210.439 30.1281 211.155 29.1521V14.1695C211.155 13.5513 211.366 13.0308 211.789 12.6078C212.212 12.1848 212.716 11.9734 213.302 11.9734C213.92 11.9734 214.441 12.1848 214.864 12.6078C215.319 13.0308 215.547 13.5513 215.547 14.1695Z" fill="#333333"></path> <path d="M218.755 32.1778C218.755 31.6247 218.934 31.1692 219.292 30.8114C219.682 30.4535 220.138 30.2745 220.659 30.2745C221.049 30.2745 221.407 30.3884 221.732 30.6161C223.814 32.1128 226.027 32.8611 228.369 32.8611C229.996 32.8611 231.249 32.5683 232.127 31.9826C233.006 31.397 233.445 30.5673 233.445 29.4937C233.445 28.4851 232.989 27.7205 232.078 27.1999C231.2 26.6468 229.752 26.1425 227.735 25.687C225.62 25.1665 224.124 24.7435 223.245 24.4181C220.447 23.2794 219.048 21.3436 219.048 18.6106C219.048 16.6259 219.861 14.9666 221.488 13.6327C223.115 12.2987 225.295 11.6317 228.028 11.6317C231.054 11.6317 233.673 12.4451 235.885 14.0719C236.406 14.4623 236.666 14.9503 236.666 15.536C236.666 16.024 236.487 16.447 236.129 16.8049C235.771 17.1628 235.348 17.3417 234.86 17.3417C234.47 17.3417 234.144 17.2278 233.884 17.0001C232.29 15.7963 230.354 15.1944 228.077 15.1944C226.58 15.1944 225.392 15.4709 224.514 16.024C223.668 16.5771 223.245 17.3254 223.245 18.269C223.245 19.1149 223.668 19.7819 224.514 20.2699C225.36 20.7579 226.759 21.2297 228.711 21.6852C230.566 22.1081 232.095 22.5474 233.299 23.0029C236.227 24.1416 237.691 26.1913 237.691 29.1521C237.691 31.2994 236.845 33.04 235.153 34.374C233.461 35.7079 231.135 36.3749 228.174 36.3749C224.79 36.3749 221.927 35.4965 219.585 33.7395C219.032 33.3491 218.755 32.8286 218.755 32.1778Z" fill="#333333"></path> <path d="M241.298 6.70262C240.745 6.14952 240.468 5.48255 240.468 4.7017C240.468 3.92085 240.745 3.27014 241.298 2.74957C241.851 2.19647 242.518 1.91992 243.299 1.91992C244.08 1.91992 244.747 2.19647 245.3 2.74957C245.853 3.27014 246.13 3.92085 246.13 4.7017C246.13 5.48255 245.853 6.14952 245.3 6.70262C244.747 7.25573 244.08 7.53228 243.299 7.53228C242.551 7.53228 241.884 7.25573 241.298 6.70262ZM241.152 33.8371V14.1695C241.152 13.5513 241.363 13.0308 241.786 12.6078C242.209 12.1848 242.73 11.9734 243.348 11.9734C243.934 11.9734 244.438 12.1848 244.861 12.6078C245.316 13.0308 245.544 13.5513 245.544 14.1695V33.8371C245.544 34.4553 245.316 34.9759 244.861 35.3988C244.438 35.8218 243.917 36.0333 243.299 36.0333C242.713 36.0333 242.209 35.8218 241.786 35.3988C241.363 34.9759 241.152 34.4553 241.152 33.8371Z" fill="#333333"></path> <path d="M270.753 19.245V33.8371C270.753 34.4553 270.525 34.9759 270.07 35.3988C269.647 35.8218 269.126 36.0333 268.508 36.0333C267.922 36.0333 267.418 35.8218 266.995 35.3988C266.572 34.9759 266.361 34.4553 266.361 33.8371V20.7091C266.361 18.8871 265.938 17.5694 265.092 16.7561C264.278 15.9427 263.026 15.536 261.334 15.536C260.065 15.536 258.845 15.8613 257.674 16.512C256.502 17.1628 255.559 17.9761 254.843 18.9522V33.8371C254.843 34.4553 254.615 34.9759 254.16 35.3988C253.737 35.8218 253.233 36.0333 252.647 36.0333C252.029 36.0333 251.508 35.8218 251.085 35.3988C250.662 34.9759 250.451 34.4553 250.451 33.8371V14.1695C250.451 13.5513 250.662 13.0308 251.085 12.6078C251.508 12.1848 252.012 11.9734 252.598 11.9734C253.216 11.9734 253.737 12.1848 254.16 12.6078C254.615 13.0308 254.843 13.5513 254.843 14.1695V15.4872C255.787 14.381 257.007 13.47 258.503 12.7542C260.032 12.0059 261.594 11.6317 263.188 11.6317C268.231 11.6317 270.753 14.1695 270.753 19.245Z" fill="#333333"></path> <path d="M285.967 11.6317C289.318 11.6317 292.067 12.7867 294.214 15.0968C296.362 17.3742 297.435 20.1235 297.435 23.3445C297.435 23.9952 297.207 24.5158 296.752 24.9062C296.296 25.2641 295.662 25.443 294.849 25.443H278.792C278.955 27.5578 279.769 29.3147 281.233 30.7137C282.697 32.0802 284.551 32.7635 286.796 32.7635C288.943 32.7635 290.896 32.129 292.653 30.8602C292.88 30.6975 293.206 30.6161 293.629 30.6161C294.117 30.6161 294.523 30.7951 294.849 31.153C295.207 31.4783 295.385 31.885 295.385 32.3731C295.385 33.0238 295.125 33.5118 294.605 33.8371C292.327 35.529 289.578 36.3749 286.357 36.3749C282.811 36.3749 279.882 35.2199 277.572 32.9099C275.295 30.5999 274.156 27.6229 274.156 23.9789C274.091 20.5952 275.214 17.6833 277.524 15.2432C279.834 12.7705 282.648 11.5667 285.967 11.6317ZM278.744 22.2708H293.141C293.076 20.4163 292.425 18.7895 291.188 17.3905C289.952 15.9589 288.211 15.2432 285.967 15.2432C283.819 15.2432 282.111 15.9427 280.842 17.3417C279.606 18.7407 278.906 20.3838 278.744 22.2708Z" fill="#333333"></path> <path d="M299.178 32.1778C299.178 31.6247 299.357 31.1692 299.715 30.8114C300.105 30.4535 300.561 30.2745 301.081 30.2745C301.472 30.2745 301.83 30.3884 302.155 30.6161C304.237 32.1128 306.45 32.8611 308.792 32.8611C310.419 32.8611 311.672 32.5683 312.55 31.9826C313.429 31.397 313.868 30.5673 313.868 29.4937C313.868 28.4851 313.412 27.7205 312.501 27.1999C311.623 26.6468 310.175 26.1425 308.158 25.687C306.043 25.1665 304.546 24.7435 303.668 24.4181C300.87 23.2794 299.471 21.3436 299.471 18.6106C299.471 16.6259 300.284 14.9666 301.911 13.6327C303.538 12.2987 305.718 11.6317 308.451 11.6317C311.477 11.6317 314.096 12.4451 316.308 14.0719C316.829 14.4623 317.089 14.9503 317.089 15.536C317.089 16.024 316.91 16.447 316.552 16.8049C316.194 17.1628 315.771 17.3417 315.283 17.3417C314.893 17.3417 314.567 17.2278 314.307 17.0001C312.713 15.7963 310.777 15.1944 308.5 15.1944C307.003 15.1944 305.815 15.4709 304.937 16.024C304.091 16.5771 303.668 17.3254 303.668 18.269C303.668 19.1149 304.091 19.7819 304.937 20.2699C305.783 20.7579 307.182 21.2297 309.134 21.6852C310.989 22.1081 312.518 22.5474 313.721 23.0029C316.65 24.1416 318.114 26.1913 318.114 29.1521C318.114 31.2994 317.268 33.04 315.576 34.374C313.884 35.7079 311.558 36.3749 308.597 36.3749C305.213 36.3749 302.35 35.4965 300.008 33.7395C299.455 33.3491 299.178 32.8286 299.178 32.1778Z" fill="#333333"></path> <path d="M319.915 32.1778C319.915 31.6247 320.094 31.1692 320.452 30.8114C320.843 30.4535 321.298 30.2745 321.819 30.2745C322.209 30.2745 322.567 30.3884 322.892 30.6161C324.975 32.1128 327.187 32.8611 329.53 32.8611C331.156 32.8611 332.409 32.5683 333.287 31.9826C334.166 31.397 334.605 30.5673 334.605 29.4937C334.605 28.4851 334.15 27.7205 333.239 27.1999C332.36 26.6468 330.912 26.1425 328.895 25.687C326.78 25.1665 325.284 24.7435 324.405 24.4181C321.607 23.2794 320.208 21.3436 320.208 18.6106C320.208 16.6259 321.022 14.9666 322.648 13.6327C324.275 12.2987 326.455 11.6317 329.188 11.6317C332.214 11.6317 334.833 12.4451 337.045 14.0719C337.566 14.4623 337.826 14.9503 337.826 15.536C337.826 16.024 337.647 16.447 337.289 16.8049C336.931 17.1628 336.508 17.3417 336.02 17.3417C335.63 17.3417 335.305 17.2278 335.044 17.0001C333.45 15.7963 331.514 15.1944 329.237 15.1944C327.74 15.1944 326.553 15.4709 325.674 16.024C324.828 16.5771 324.405 17.3254 324.405 18.269C324.405 19.1149 324.828 19.7819 325.674 20.2699C326.52 20.7579 327.919 21.2297 329.871 21.6852C331.726 22.1081 333.255 22.5474 334.459 23.0029C337.387 24.1416 338.851 26.1913 338.851 29.1521C338.851 31.2994 338.005 33.04 336.313 34.374C334.621 35.7079 332.295 36.3749 329.334 36.3749C325.951 36.3749 323.088 35.4965 320.745 33.7395C320.192 33.3491 319.915 32.8286 319.915 32.1778Z" fill="#333333"></path> <path fill-rule="evenodd" clip-rule="evenodd" d="M19.5669 18.1794V2.4688C19.5669 1.10532 20.6534 0 21.9936 0C23.3339 0 24.4204 1.10532 24.4204 2.4688V15.8374H38.3783C39.7418 15.8374 40.8471 16.9239 40.8471 18.2641C40.8471 19.6044 39.7418 20.6909 38.3783 20.6909H22.2189C22.0126 20.6909 21.8122 20.666 21.6206 20.6192C20.4574 20.4366 19.5669 19.4138 19.5669 18.1794ZM2.4688 20.6909H15.4861C16.8496 20.6909 17.9549 19.6044 17.9549 18.2641C17.9549 16.9239 16.8496 15.8374 15.4861 15.8374H2.4688C1.10532 15.8374 0 16.9239 0 18.2641C0 19.6044 1.10532 20.6909 2.4688 20.6909ZM19.9185 22.6935C20.7476 22.4431 21.682 22.6528 22.3339 23.3211L33.5658 34.8362C34.5099 35.804 34.5039 37.3672 33.5526 38.3276C32.6012 39.288 31.0647 39.2819 30.1206 38.3141L20.3932 28.3415L10.5068 38.135C9.5464 39.0864 7.98326 39.0923 7.01541 38.1482C6.04757 37.2042 6.04154 35.6677 7.00193 34.7163L18.4284 23.3973C18.8444 22.9852 19.3736 22.7504 19.9185 22.6935Z" fill="#E4B550"></path> </svg> 